<mxfile host="Electron" modified="2024-05-01T12:48:36.973Z" agent="Mozilla/5.0 (Windows NT 10.0; Win64; x64) AppleWebKit/537.36 (KHTML, like Gecko) draw.io/24.2.5 Chrome/120.0.6099.109 Electron/28.1.0 Safari/537.36" etag="O51jMy2Cq5JfXjbrAeYV" version="24.2.5" type="device">
  <diagram id="R2lEEEUBdFMjLlhIrx00" name="Page-1">
    <mxGraphModel dx="2173" dy="932" grid="1" gridSize="10" guides="1" tooltips="1" connect="1" arrows="1" fold="1" page="1" pageScale="1" pageWidth="850" pageHeight="1100" math="0" shadow="0" extFonts="Permanent Marker^https://fonts.googleapis.com/css?family=Permanent+Marker">
      <root>
        <mxCell id="0" />
        <mxCell id="1" parent="0" />
        <mxCell id="ZTBUV46gLh5m4LzbdDfJ-37" style="edgeStyle=none;rounded=0;orthogonalLoop=1;jettySize=auto;html=1;entryX=0.5;entryY=1;entryDx=0;entryDy=0;strokeColor=default;align=center;verticalAlign=middle;fontFamily=Helvetica;fontSize=11;fontColor=default;labelBackgroundColor=default;endArrow=none;endFill=0;" parent="1" source="ZTBUV46gLh5m4LzbdDfJ-1" target="ZTBUV46gLh5m4LzbdDfJ-30" edge="1">
          <mxGeometry relative="1" as="geometry" />
        </mxCell>
        <mxCell id="ZTBUV46gLh5m4LzbdDfJ-38" style="edgeStyle=none;rounded=0;orthogonalLoop=1;jettySize=auto;html=1;strokeColor=default;align=center;verticalAlign=middle;fontFamily=Helvetica;fontSize=11;fontColor=default;labelBackgroundColor=default;endArrow=none;endFill=0;" parent="1" source="ZTBUV46gLh5m4LzbdDfJ-1" target="ZTBUV46gLh5m4LzbdDfJ-28" edge="1">
          <mxGeometry relative="1" as="geometry" />
        </mxCell>
        <mxCell id="ZTBUV46gLh5m4LzbdDfJ-1" value="Product" style="whiteSpace=wrap;html=1;align=center;" parent="1" vertex="1">
          <mxGeometry x="410" y="740" width="100" height="40" as="geometry" />
        </mxCell>
        <mxCell id="ZTBUV46gLh5m4LzbdDfJ-2" value="Supplier" style="whiteSpace=wrap;html=1;align=center;" parent="1" vertex="1">
          <mxGeometry x="770" y="740" width="100" height="40" as="geometry" />
        </mxCell>
        <mxCell id="ZTBUV46gLh5m4LzbdDfJ-21" style="rounded=0;orthogonalLoop=1;jettySize=auto;html=1;strokeColor=default;align=center;verticalAlign=middle;fontFamily=Helvetica;fontSize=11;fontColor=default;labelBackgroundColor=default;endArrow=none;endFill=0;" parent="1" source="ZTBUV46gLh5m4LzbdDfJ-3" target="ZTBUV46gLh5m4LzbdDfJ-17" edge="1">
          <mxGeometry relative="1" as="geometry" />
        </mxCell>
        <mxCell id="ZTBUV46gLh5m4LzbdDfJ-3" value="Customer" style="whiteSpace=wrap;html=1;align=center;" parent="1" vertex="1">
          <mxGeometry x="-20" y="400" width="100" height="40" as="geometry" />
        </mxCell>
        <mxCell id="ZTBUV46gLh5m4LzbdDfJ-4" value="Order" style="whiteSpace=wrap;html=1;align=center;" parent="1" vertex="1">
          <mxGeometry x="410" y="400" width="100" height="40" as="geometry" />
        </mxCell>
        <mxCell id="ZTBUV46gLh5m4LzbdDfJ-15" value="Full Name" style="ellipse;whiteSpace=wrap;html=1;align=center;dashed=1;" parent="1" vertex="1">
          <mxGeometry y="300" width="100" height="40" as="geometry" />
        </mxCell>
        <mxCell id="ZTBUV46gLh5m4LzbdDfJ-16" value="Interests" style="ellipse;shape=doubleEllipse;margin=3;whiteSpace=wrap;html=1;align=center;" parent="1" vertex="1">
          <mxGeometry x="-70" y="490" width="100" height="40" as="geometry" />
        </mxCell>
        <mxCell id="ZTBUV46gLh5m4LzbdDfJ-17" value="CustID" style="ellipse;whiteSpace=wrap;html=1;align=center;fontStyle=4;" parent="1" vertex="1">
          <mxGeometry x="-110" y="310" width="100" height="40" as="geometry" />
        </mxCell>
        <mxCell id="ZTBUV46gLh5m4LzbdDfJ-19" value="first name" style="ellipse;whiteSpace=wrap;html=1;align=center;" parent="1" vertex="1">
          <mxGeometry x="-240" y="410" width="100" height="40" as="geometry" />
        </mxCell>
        <mxCell id="ZTBUV46gLh5m4LzbdDfJ-20" value="last name" style="ellipse;whiteSpace=wrap;html=1;align=center;" parent="1" vertex="1">
          <mxGeometry x="-190" y="470" width="100" height="40" as="geometry" />
        </mxCell>
        <mxCell id="ZTBUV46gLh5m4LzbdDfJ-22" style="rounded=0;orthogonalLoop=1;jettySize=auto;html=1;exitX=0.75;exitY=0;exitDx=0;exitDy=0;endArrow=none;endFill=0;" parent="1" source="ZTBUV46gLh5m4LzbdDfJ-3" target="ZTBUV46gLh5m4LzbdDfJ-15" edge="1">
          <mxGeometry relative="1" as="geometry">
            <mxPoint x="-27" y="410" as="sourcePoint" />
            <mxPoint x="-43" y="360" as="targetPoint" />
          </mxGeometry>
        </mxCell>
        <mxCell id="ZTBUV46gLh5m4LzbdDfJ-23" style="rounded=0;orthogonalLoop=1;jettySize=auto;html=1;exitX=0.633;exitY=1.086;exitDx=0;exitDy=0;strokeColor=default;align=center;verticalAlign=middle;fontFamily=Helvetica;fontSize=11;fontColor=default;labelBackgroundColor=default;endArrow=none;endFill=0;exitPerimeter=0;" parent="1" source="ZTBUV46gLh5m4LzbdDfJ-3" target="ZTBUV46gLh5m4LzbdDfJ-16" edge="1">
          <mxGeometry relative="1" as="geometry">
            <mxPoint x="16" y="407" as="sourcePoint" />
            <mxPoint x="79" y="410" as="targetPoint" />
          </mxGeometry>
        </mxCell>
        <mxCell id="ZTBUV46gLh5m4LzbdDfJ-24" style="rounded=0;orthogonalLoop=1;jettySize=auto;html=1;entryX=0;entryY=1;entryDx=0;entryDy=0;strokeColor=default;align=center;verticalAlign=middle;fontFamily=Helvetica;fontSize=11;fontColor=default;labelBackgroundColor=default;endArrow=none;endFill=0;" parent="1" source="ZTBUV46gLh5m4LzbdDfJ-20" target="ZTBUV46gLh5m4LzbdDfJ-3" edge="1">
          <mxGeometry relative="1" as="geometry" />
        </mxCell>
        <mxCell id="ZTBUV46gLh5m4LzbdDfJ-25" style="rounded=0;orthogonalLoop=1;jettySize=auto;html=1;entryX=0;entryY=0.75;entryDx=0;entryDy=0;strokeColor=default;align=center;verticalAlign=middle;fontFamily=Helvetica;fontSize=11;fontColor=default;labelBackgroundColor=default;endArrow=none;endFill=0;" parent="1" source="ZTBUV46gLh5m4LzbdDfJ-19" target="ZTBUV46gLh5m4LzbdDfJ-3" edge="1">
          <mxGeometry relative="1" as="geometry" />
        </mxCell>
        <mxCell id="ZTBUV46gLh5m4LzbdDfJ-27" style="edgeStyle=none;rounded=0;orthogonalLoop=1;jettySize=auto;html=1;entryX=0;entryY=0.5;entryDx=0;entryDy=0;strokeColor=default;align=center;verticalAlign=middle;fontFamily=Helvetica;fontSize=11;fontColor=default;labelBackgroundColor=default;endArrow=none;endFill=0;" parent="1" source="ZTBUV46gLh5m4LzbdDfJ-26" target="ZTBUV46gLh5m4LzbdDfJ-3" edge="1">
          <mxGeometry relative="1" as="geometry" />
        </mxCell>
        <mxCell id="ZTBUV46gLh5m4LzbdDfJ-26" value="last name" style="ellipse;whiteSpace=wrap;html=1;align=center;" parent="1" vertex="1">
          <mxGeometry x="-210" y="340" width="100" height="40" as="geometry" />
        </mxCell>
        <mxCell id="ZTBUV46gLh5m4LzbdDfJ-28" value="Name" style="ellipse;whiteSpace=wrap;html=1;align=center;" parent="1" vertex="1">
          <mxGeometry x="200" y="780" width="100" height="40" as="geometry" />
        </mxCell>
        <mxCell id="ZTBUV46gLh5m4LzbdDfJ-30" value="ProdID" style="ellipse;whiteSpace=wrap;html=1;align=center;fontStyle=4;" parent="1" vertex="1">
          <mxGeometry x="275" y="720" width="100" height="40" as="geometry" />
        </mxCell>
        <mxCell id="ZTBUV46gLh5m4LzbdDfJ-39" style="edgeStyle=none;rounded=0;orthogonalLoop=1;jettySize=auto;html=1;strokeColor=default;align=center;verticalAlign=middle;fontFamily=Helvetica;fontSize=11;fontColor=default;labelBackgroundColor=default;endArrow=none;endFill=0;" parent="1" source="ZTBUV46gLh5m4LzbdDfJ-31" target="ZTBUV46gLh5m4LzbdDfJ-1" edge="1">
          <mxGeometry relative="1" as="geometry" />
        </mxCell>
        <mxCell id="ZTBUV46gLh5m4LzbdDfJ-31" value="Price" style="ellipse;whiteSpace=wrap;html=1;align=center;" parent="1" vertex="1">
          <mxGeometry x="255" y="840" width="100" height="40" as="geometry" />
        </mxCell>
        <mxCell id="ZTBUV46gLh5m4LzbdDfJ-33" value="&lt;i&gt;SupplierID&lt;/i&gt;" style="ellipse;whiteSpace=wrap;html=1;align=center;fontStyle=4;" parent="1" vertex="1">
          <mxGeometry x="340" y="880" width="100" height="40" as="geometry" />
        </mxCell>
        <mxCell id="ZTBUV46gLh5m4LzbdDfJ-41" style="edgeStyle=none;rounded=0;orthogonalLoop=1;jettySize=auto;html=1;strokeColor=default;align=center;verticalAlign=middle;fontFamily=Helvetica;fontSize=11;fontColor=default;labelBackgroundColor=default;endArrow=none;endFill=0;entryX=0.75;entryY=1;entryDx=0;entryDy=0;" parent="1" source="ZTBUV46gLh5m4LzbdDfJ-36" target="ZTBUV46gLh5m4LzbdDfJ-1" edge="1">
          <mxGeometry relative="1" as="geometry">
            <mxPoint x="480" y="820" as="targetPoint" />
          </mxGeometry>
        </mxCell>
        <mxCell id="ZTBUV46gLh5m4LzbdDfJ-36" value="&lt;i&gt;CategoryID&lt;/i&gt;" style="ellipse;whiteSpace=wrap;html=1;align=center;fontStyle=4;" parent="1" vertex="1">
          <mxGeometry x="450" y="890" width="100" height="40" as="geometry" />
        </mxCell>
        <mxCell id="ZTBUV46gLh5m4LzbdDfJ-40" style="edgeStyle=none;rounded=0;orthogonalLoop=1;jettySize=auto;html=1;entryX=0.424;entryY=1;entryDx=0;entryDy=0;entryPerimeter=0;strokeColor=default;align=center;verticalAlign=middle;fontFamily=Helvetica;fontSize=11;fontColor=default;labelBackgroundColor=default;endArrow=none;endFill=0;" parent="1" source="ZTBUV46gLh5m4LzbdDfJ-33" target="ZTBUV46gLh5m4LzbdDfJ-1" edge="1">
          <mxGeometry relative="1" as="geometry" />
        </mxCell>
        <mxCell id="ZTBUV46gLh5m4LzbdDfJ-43" style="edgeStyle=none;rounded=0;orthogonalLoop=1;jettySize=auto;html=1;strokeColor=default;align=center;verticalAlign=middle;fontFamily=Helvetica;fontSize=11;fontColor=default;labelBackgroundColor=default;endArrow=none;endFill=0;" parent="1" source="ZTBUV46gLh5m4LzbdDfJ-42" target="ZTBUV46gLh5m4LzbdDfJ-2" edge="1">
          <mxGeometry relative="1" as="geometry" />
        </mxCell>
        <mxCell id="ZTBUV46gLh5m4LzbdDfJ-42" value="SuppID" style="ellipse;whiteSpace=wrap;html=1;align=center;fontStyle=4;" parent="1" vertex="1">
          <mxGeometry x="820" y="670" width="100" height="40" as="geometry" />
        </mxCell>
        <mxCell id="ZTBUV46gLh5m4LzbdDfJ-45" style="edgeStyle=none;rounded=0;orthogonalLoop=1;jettySize=auto;html=1;entryX=1;entryY=0.25;entryDx=0;entryDy=0;strokeColor=default;align=center;verticalAlign=middle;fontFamily=Helvetica;fontSize=11;fontColor=default;labelBackgroundColor=default;endArrow=none;endFill=0;" parent="1" source="ZTBUV46gLh5m4LzbdDfJ-44" target="ZTBUV46gLh5m4LzbdDfJ-2" edge="1">
          <mxGeometry relative="1" as="geometry" />
        </mxCell>
        <mxCell id="ZTBUV46gLh5m4LzbdDfJ-44" value="Name" style="ellipse;whiteSpace=wrap;html=1;align=center;" parent="1" vertex="1">
          <mxGeometry x="898" y="720" width="100" height="40" as="geometry" />
        </mxCell>
        <mxCell id="ZTBUV46gLh5m4LzbdDfJ-48" style="edgeStyle=none;rounded=0;orthogonalLoop=1;jettySize=auto;html=1;entryX=1;entryY=1;entryDx=0;entryDy=0;strokeColor=default;align=center;verticalAlign=middle;fontFamily=Helvetica;fontSize=11;fontColor=default;labelBackgroundColor=default;endArrow=none;endFill=0;" parent="1" source="ZTBUV46gLh5m4LzbdDfJ-47" target="ZTBUV46gLh5m4LzbdDfJ-2" edge="1">
          <mxGeometry relative="1" as="geometry" />
        </mxCell>
        <mxCell id="ZTBUV46gLh5m4LzbdDfJ-47" value="Location" style="ellipse;whiteSpace=wrap;html=1;align=center;" parent="1" vertex="1">
          <mxGeometry x="870" y="800" width="100" height="40" as="geometry" />
        </mxCell>
        <mxCell id="ZTBUV46gLh5m4LzbdDfJ-55" style="edgeStyle=none;rounded=0;orthogonalLoop=1;jettySize=auto;html=1;entryX=0.5;entryY=0;entryDx=0;entryDy=0;strokeColor=default;align=center;verticalAlign=middle;fontFamily=Helvetica;fontSize=11;fontColor=default;labelBackgroundColor=default;endArrow=none;endFill=0;" parent="1" source="ZTBUV46gLh5m4LzbdDfJ-49" target="ZTBUV46gLh5m4LzbdDfJ-4" edge="1">
          <mxGeometry relative="1" as="geometry" />
        </mxCell>
        <mxCell id="ZTBUV46gLh5m4LzbdDfJ-49" value="OrderId" style="ellipse;whiteSpace=wrap;html=1;align=center;fontStyle=4;" parent="1" vertex="1">
          <mxGeometry x="450" y="310" width="100" height="40" as="geometry" />
        </mxCell>
        <mxCell id="ZTBUV46gLh5m4LzbdDfJ-56" style="edgeStyle=none;rounded=0;orthogonalLoop=1;jettySize=auto;html=1;entryX=1;entryY=0.25;entryDx=0;entryDy=0;strokeColor=default;align=center;verticalAlign=middle;fontFamily=Helvetica;fontSize=11;fontColor=default;labelBackgroundColor=default;endArrow=none;endFill=0;" parent="1" source="ZTBUV46gLh5m4LzbdDfJ-50" target="ZTBUV46gLh5m4LzbdDfJ-4" edge="1">
          <mxGeometry relative="1" as="geometry" />
        </mxCell>
        <mxCell id="ZTBUV46gLh5m4LzbdDfJ-50" value="&lt;i&gt;CustomerID&lt;/i&gt;" style="ellipse;whiteSpace=wrap;html=1;align=center;fontStyle=4;" parent="1" vertex="1">
          <mxGeometry x="540" y="350" width="100" height="40" as="geometry" />
        </mxCell>
        <mxCell id="ZTBUV46gLh5m4LzbdDfJ-52" value="Makes" style="shape=rhombus;perimeter=rhombusPerimeter;whiteSpace=wrap;html=1;align=center;fontFamily=Helvetica;fontSize=11;fontColor=default;labelBackgroundColor=default;" parent="1" vertex="1">
          <mxGeometry x="200" y="390" width="120" height="60" as="geometry" />
        </mxCell>
        <mxCell id="ZTBUV46gLh5m4LzbdDfJ-60" style="edgeStyle=none;rounded=0;orthogonalLoop=1;jettySize=auto;html=1;entryX=1;entryY=0.75;entryDx=0;entryDy=0;strokeColor=default;align=center;verticalAlign=middle;fontFamily=Helvetica;fontSize=11;fontColor=default;labelBackgroundColor=default;endArrow=none;endFill=0;" parent="1" source="ZTBUV46gLh5m4LzbdDfJ-59" target="ZTBUV46gLh5m4LzbdDfJ-4" edge="1">
          <mxGeometry relative="1" as="geometry" />
        </mxCell>
        <mxCell id="ZTBUV46gLh5m4LzbdDfJ-59" value="Date" style="ellipse;whiteSpace=wrap;html=1;align=center;" parent="1" vertex="1">
          <mxGeometry x="570" y="410" width="100" height="40" as="geometry" />
        </mxCell>
        <mxCell id="ZTBUV46gLh5m4LzbdDfJ-62" style="edgeStyle=none;rounded=0;orthogonalLoop=1;jettySize=auto;html=1;entryX=0.68;entryY=1.042;entryDx=0;entryDy=0;strokeColor=default;align=center;verticalAlign=middle;fontFamily=Helvetica;fontSize=11;fontColor=default;labelBackgroundColor=default;endArrow=none;endFill=0;entryPerimeter=0;" parent="1" source="ZTBUV46gLh5m4LzbdDfJ-61" target="ZTBUV46gLh5m4LzbdDfJ-4" edge="1">
          <mxGeometry relative="1" as="geometry" />
        </mxCell>
        <mxCell id="ZTBUV46gLh5m4LzbdDfJ-61" value="Amount" style="ellipse;whiteSpace=wrap;html=1;align=center;" parent="1" vertex="1">
          <mxGeometry x="530" y="470" width="100" height="40" as="geometry" />
        </mxCell>
        <mxCell id="ZTBUV46gLh5m4LzbdDfJ-63" value="Supplies" style="shape=rhombus;perimeter=rhombusPerimeter;whiteSpace=wrap;html=1;align=center;fontFamily=Helvetica;fontSize=11;fontColor=default;labelBackgroundColor=default;" parent="1" vertex="1">
          <mxGeometry x="580" y="730" width="120" height="60" as="geometry" />
        </mxCell>
        <mxCell id="ZTBUV46gLh5m4LzbdDfJ-66" value="Contains" style="shape=rhombus;perimeter=rhombusPerimeter;whiteSpace=wrap;html=1;align=center;fontFamily=Helvetica;fontSize=11;fontColor=default;labelBackgroundColor=default;rotation=0;" parent="1" vertex="1">
          <mxGeometry x="400" y="570" width="120" height="60" as="geometry" />
        </mxCell>
        <mxCell id="zbmqoNFa5FQYftfH9qYT-2" value="" style="endArrow=none;html=1;rounded=0;entryX=0;entryY=0.5;entryDx=0;entryDy=0;exitX=1;exitY=0.5;exitDx=0;exitDy=0;" edge="1" parent="1" source="ZTBUV46gLh5m4LzbdDfJ-3" target="ZTBUV46gLh5m4LzbdDfJ-52">
          <mxGeometry relative="1" as="geometry">
            <mxPoint x="170" y="460" as="sourcePoint" />
            <mxPoint x="330" y="460" as="targetPoint" />
          </mxGeometry>
        </mxCell>
        <mxCell id="zbmqoNFa5FQYftfH9qYT-3" value="M" style="resizable=0;html=1;whiteSpace=wrap;align=right;verticalAlign=bottom;" connectable="0" vertex="1" parent="zbmqoNFa5FQYftfH9qYT-2">
          <mxGeometry x="1" relative="1" as="geometry" />
        </mxCell>
        <mxCell id="zbmqoNFa5FQYftfH9qYT-4" value="" style="endArrow=none;html=1;rounded=0;entryX=0;entryY=0.5;entryDx=0;entryDy=0;exitX=1;exitY=0.5;exitDx=0;exitDy=0;" edge="1" parent="1" source="ZTBUV46gLh5m4LzbdDfJ-52" target="ZTBUV46gLh5m4LzbdDfJ-4">
          <mxGeometry relative="1" as="geometry">
            <mxPoint x="90" y="430" as="sourcePoint" />
            <mxPoint x="210" y="430" as="targetPoint" />
          </mxGeometry>
        </mxCell>
        <mxCell id="zbmqoNFa5FQYftfH9qYT-5" value="1" style="resizable=0;html=1;whiteSpace=wrap;align=right;verticalAlign=bottom;" connectable="0" vertex="1" parent="zbmqoNFa5FQYftfH9qYT-4">
          <mxGeometry x="1" relative="1" as="geometry" />
        </mxCell>
        <mxCell id="zbmqoNFa5FQYftfH9qYT-6" value="" style="endArrow=none;html=1;rounded=0;entryX=0.5;entryY=0;entryDx=0;entryDy=0;exitX=0.5;exitY=1;exitDx=0;exitDy=0;" edge="1" parent="1" source="ZTBUV46gLh5m4LzbdDfJ-4" target="ZTBUV46gLh5m4LzbdDfJ-66">
          <mxGeometry relative="1" as="geometry">
            <mxPoint x="270" y="489.31" as="sourcePoint" />
            <mxPoint x="390" y="489.31" as="targetPoint" />
          </mxGeometry>
        </mxCell>
        <mxCell id="zbmqoNFa5FQYftfH9qYT-7" value="M" style="resizable=0;html=1;whiteSpace=wrap;align=right;verticalAlign=bottom;" connectable="0" vertex="1" parent="zbmqoNFa5FQYftfH9qYT-6">
          <mxGeometry x="1" relative="1" as="geometry" />
        </mxCell>
        <mxCell id="zbmqoNFa5FQYftfH9qYT-29" value="" style="endArrow=none;html=1;rounded=0;entryX=0.5;entryY=0;entryDx=0;entryDy=0;exitX=0.5;exitY=1;exitDx=0;exitDy=0;" edge="1" parent="1" source="ZTBUV46gLh5m4LzbdDfJ-66" target="ZTBUV46gLh5m4LzbdDfJ-1">
          <mxGeometry relative="1" as="geometry">
            <mxPoint x="550" y="700" as="sourcePoint" />
            <mxPoint x="470" y="580" as="targetPoint" />
            <Array as="points" />
          </mxGeometry>
        </mxCell>
        <mxCell id="zbmqoNFa5FQYftfH9qYT-30" value="N" style="resizable=0;html=1;whiteSpace=wrap;align=right;verticalAlign=bottom;" connectable="0" vertex="1" parent="zbmqoNFa5FQYftfH9qYT-29">
          <mxGeometry x="1" relative="1" as="geometry" />
        </mxCell>
        <mxCell id="zbmqoNFa5FQYftfH9qYT-32" value="" style="endArrow=none;html=1;rounded=0;entryX=0;entryY=0.5;entryDx=0;entryDy=0;exitX=1;exitY=0.5;exitDx=0;exitDy=0;" edge="1" parent="1" source="ZTBUV46gLh5m4LzbdDfJ-1" target="ZTBUV46gLh5m4LzbdDfJ-63">
          <mxGeometry relative="1" as="geometry">
            <mxPoint x="600" y="630" as="sourcePoint" />
            <mxPoint x="600" y="740" as="targetPoint" />
            <Array as="points" />
          </mxGeometry>
        </mxCell>
        <mxCell id="zbmqoNFa5FQYftfH9qYT-33" value="N" style="resizable=0;html=1;whiteSpace=wrap;align=right;verticalAlign=bottom;" connectable="0" vertex="1" parent="zbmqoNFa5FQYftfH9qYT-32">
          <mxGeometry x="1" relative="1" as="geometry" />
        </mxCell>
        <mxCell id="zbmqoNFa5FQYftfH9qYT-34" value="" style="endArrow=none;html=1;rounded=0;entryX=0;entryY=0.5;entryDx=0;entryDy=0;exitX=1;exitY=0.5;exitDx=0;exitDy=0;" edge="1" parent="1">
          <mxGeometry relative="1" as="geometry">
            <mxPoint x="700" y="760" as="sourcePoint" />
            <mxPoint x="770" y="760" as="targetPoint" />
            <Array as="points" />
          </mxGeometry>
        </mxCell>
        <mxCell id="zbmqoNFa5FQYftfH9qYT-35" value="M" style="resizable=0;html=1;whiteSpace=wrap;align=right;verticalAlign=bottom;" connectable="0" vertex="1" parent="zbmqoNFa5FQYftfH9qYT-34">
          <mxGeometry x="1" relative="1" as="geometry" />
        </mxCell>
      </root>
    </mxGraphModel>
  </diagram>
</mxfile>
